<svg xmlns="http://www.w3.org/2000/svg" width="1200" height="760" viewBox="0 0 1200 760" role="img" aria-labelledby="title desc">
<title id="title">SystemForge public-safe proof overview</title><desc id="desc">Sanitized product architecture map for an AI-first software delivery factory.</desc>
<rect width="1200" height="760" fill="#05070d"/><rect x="60" y="60" width="1080" height="640" rx="34" fill="#08101f" stroke="#31445e" stroke-width="2"/>
<text x="100" y="130" fill="#f7fafc" font-family="Arial" font-size="52" font-weight="700">SystemForge / Architektr</text><text x="100" y="178" fill="#8ddcff" font-family="Arial" font-size="28">AI-first software delivery factory vision</text>
<g fill="#121b2a" stroke="#465e79" stroke-width="2" font-family="Arial" font-size="23"><rect x="100" y="285" width="190" height="110" rx="22"/><text x="132" y="348" fill="#e8eef6">Business Intent</text><rect x="350" y="285" width="210" height="110" rx="22"/><text x="382" y="348" fill="#e8eef6">Semantic Layer</text><rect x="620" y="235" width="220" height="110" rx="22"/><text x="658" y="298" fill="#e8eef6">Architecture</text><rect x="620" y="415" width="220" height="110" rx="22"/><text x="662" y="478" fill="#e8eef6">Backlog</text><rect x="900" y="325" width="190" height="110" rx="22"/><text x="936" y="388" fill="#e8eef6">Code Paths</text></g>
<g stroke="#8ddcff" stroke-width="4" fill="none"><path d="M290 340H350"/><path d="M560 340C590 340 590 290 620 290"/><path d="M560 340C590 340 590 470 620 470"/><path d="M840 290C880 290 880 380 900 380"/><path d="M840 470C880 470 880 380 900 380"/></g>
<text x="100" y="645" fill="#9aa7b9" font-family="Arial" font-size="22">Public-safe summary visual. It shows the operating model, not private implementation details or customer data.</text>
</svg>
