<svg xmlns="http://www.w3.org/2000/svg" width="1200" height="760" viewBox="0 0 1200 760" role="img" aria-labelledby="title desc">
<title id="title">The.Director public-safe proof overview</title><desc id="desc">Sanitized multi-agent orchestration flow without tokens, logs, private repository names, prompts, or endpoints.</desc>
<rect width="1200" height="760" fill="#05070d"/><rect x="60" y="60" width="1080" height="640" rx="34" fill="#08101f" stroke="#31445e" stroke-width="2"/>
<text x="100" y="130" fill="#f7fafc" font-family="Arial" font-size="52" font-weight="700">The.Director</text><text x="100" y="178" fill="#8ddcff" font-family="Arial" font-size="28">Controlled multi-agent orchestration platform</text>
<g fill="#121b2a" stroke="#465e79" stroke-width="2" font-family="Arial" font-size="24"><rect x="110" y="270" width="220" height="110" rx="22"/><text x="150" y="333" fill="#e8eef6">Intent</text><rect x="410" y="240" width="260" height="170" rx="28" stroke="#8ddcff"/><text x="455" y="312" fill="#e8eef6">Director</text><text x="455" y="348" fill="#9aa7b9" font-size="20">dispatch + control</text><rect x="750" y="210" width="240" height="95" rx="22"/><text x="792" y="268" fill="#e8eef6">Expert Roles</text><rect x="750" y="345" width="240" height="95" rx="22"/><text x="798" y="403" fill="#e8eef6">Arbiter</text><rect x="410" y="500" width="260" height="95" rx="22"/><text x="458" y="558" fill="#e8eef6">Human Review</text></g>
<g stroke="#8ddcff" stroke-width="4" fill="none"><path d="M330 325H410"/><path d="M670 292H750"/><path d="M670 360H750"/><path d="M540 410V500"/></g>
<text x="100" y="645" fill="#9aa7b9" font-family="Arial" font-size="22">Public-safe summary visual. Logs, prompts, tokens, private paths, and endpoint details are intentionally omitted.</text>
</svg>
