<svg xmlns="http://www.w3.org/2000/svg" width="1200" height="760" viewBox="0 0 1200 760" role="img" aria-labelledby="title desc">
<title id="title">BreadCost public-safe proof overview</title><desc id="desc">Sanitized architecture-style overview with no private prices, customers, suppliers, credentials, or internal names.</desc>
<rect width="1200" height="760" fill="#05070d"/><rect x="60" y="60" width="1080" height="640" rx="34" fill="#08101f" stroke="#31445e" stroke-width="2"/>
<text x="100" y="130" fill="#f7fafc" font-family="Arial" font-size="52" font-weight="700">BreadCost</text><text x="100" y="178" fill="#8ddcff" font-family="Arial" font-size="28">Bakery manufacturing cost accounting system</text>
<g fill="#121b2a" stroke="#465e79" stroke-width="2" font-family="Arial" font-size="24"><rect x="110" y="270" width="220" height="110" rx="22"/><text x="145" y="333" fill="#e8eef6">Recipes</text><rect x="390" y="270" width="220" height="110" rx="22"/><text x="426" y="333" fill="#e8eef6">Production</text><rect x="670" y="270" width="220" height="110" rx="22"/><text x="708" y="333" fill="#e8eef6">Inventory</text><rect x="390" y="470" width="220" height="110" rx="22"/><text x="430" y="533" fill="#e8eef6">Cost Flow</text><rect x="670" y="470" width="220" height="110" rx="22"/><text x="706" y="533" fill="#e8eef6">QA Gates</text></g>
<g stroke="#8ddcff" stroke-width="4" fill="none"><path d="M330 325H390"/><path d="M610 325H670"/><path d="M500 380V470"/><path d="M610 525H670"/></g>
<text x="100" y="645" fill="#9aa7b9" font-family="Arial" font-size="22">Public-safe summary visual. Real costs, supplier details, employees, and private operational data are intentionally omitted.</text>
</svg>
